<?xml version="1.0" encoding="UTF-8"?>
<!DOCTYPE svg PUBLIC "-//W3C//DTD SVG 1.1//EN" "http://www.w3.org/Graphics/SVG/1.1/DTD/svg11.dtd">
<svg xmlns="http://www.w3.org/2000/svg" version="1.1" width="32px" height="32px" style="shape-rendering:geometricPrecision; text-rendering:geometricPrecision; image-rendering:optimizeQuality; fill-rule:evenodd; clip-rule:evenodd" xmlns:xlink="http://www.w3.org/1999/xlink">
<g><path style="opacity:0.984" fill="#141414" d="M 11.5,-0.5 C 13.1667,-0.5 14.8333,-0.5 16.5,-0.5C 20.2345,4.40342 24.7345,8.40342 30,11.5C 29.409,16.8834 27.5757,22.0501 24.5,27C 26.3757,27.9184 27.3757,29.4184 27.5,31.5C 25.1667,31.5 22.8333,31.5 20.5,31.5C 20.1667,30.1667 19.8333,30.1667 19.5,31.5C 15.5,31.5 11.5,31.5 7.5,31.5C 7.16667,30.1667 6.83333,30.1667 6.5,31.5C 4.83333,31.5 3.16667,31.5 1.5,31.5C 0.489053,29.5976 0.322386,27.5976 1,25.5C 1.86025,22.9165 3.02691,20.5832 4.5,18.5C 4.00249,22.2194 4.83582,25.5527 7,28.5C 6.56363,24.5811 8.2303,22.2478 12,21.5C 13.301,21.6387 14.1344,22.3054 14.5,23.5C 16.1042,24.287 16.7709,25.6203 16.5,27.5C 17.5,27.5 18.5,27.5 19.5,27.5C 19.3505,26.448 19.5172,25.448 20,24.5C 21.128,26.3453 21.628,28.3453 21.5,30.5C 22.8734,30.6567 24.2068,30.49 25.5,30C 23.7852,29.2229 22.7852,27.8895 22.5,26C 23.5617,24.159 24.5617,22.3257 25.5,20.5C 26.4013,19.7095 27.0679,18.7095 27.5,17.5C 29.2726,16.6857 29.7726,15.3524 29,13.5C 23.4443,7.51037 20.2776,8.51037 19.5,16.5C 15.6002,15.5701 11.6002,15.2367 7.5,15.5C 7.61071,14.8826 7.94404,14.3826 8.5,14C 11.5,13.6667 14.5,13.3333 17.5,13C 14.3763,12.5209 11.5429,11.3543 9,9.5C 8.15312,6.50957 9.31978,5.17624 12.5,5.5C 12.1667,3.5 11.8333,1.5 11.5,-0.5 Z"/></g>
<g><path style="opacity:1" fill="#cccdd3" d="M 13.5,0.5 C 16.2971,2.79503 18.9638,5.29503 21.5,8C 18.3578,7.91225 15.8578,6.41225 14,3.5C 13.5172,2.55198 13.3505,1.55198 13.5,0.5 Z"/></g>
<g><path style="opacity:1" fill="#efefef" d="M 10.5,8.5 C 10.7352,7.90326 11.2352,7.56993 12,7.5C 14.5,8.33333 17,9.16667 19.5,10C 16.2587,10.7931 13.2587,10.2931 10.5,8.5 Z"/></g>
<g><path style="opacity:1" fill="#efefef" d="M 27.5,17.5 C 24.7628,17.5987 22.0961,17.2653 19.5,16.5C 20.2776,8.51037 23.4443,7.51037 29,13.5C 29.7726,15.3524 29.2726,16.6857 27.5,17.5 Z"/></g>
<g><path style="opacity:0.995" fill="#dcdee4" d="M 6.5,15.5 C 6.83333,15.5 7.16667,15.5 7.5,15.5C 11.6002,15.2367 15.6002,15.5701 19.5,16.5C 19.3691,17.3764 19.7025,18.0431 20.5,18.5C 22.3361,19.0276 24.0028,19.6942 25.5,20.5C 24.5617,22.3257 23.5617,24.159 22.5,26C 22.7852,27.8895 23.7852,29.2229 25.5,30C 24.2068,30.49 22.8734,30.6567 21.5,30.5C 21.628,28.3453 21.128,26.3453 20,24.5C 19.5172,25.448 19.3505,26.448 19.5,27.5C 18.5,27.5 17.5,27.5 16.5,27.5C 16.7709,25.6203 16.1042,24.287 14.5,23.5C 14.1344,22.3054 13.301,21.6387 12,21.5C 8.2303,22.2478 6.56363,24.5811 7,28.5C 4.83582,25.5527 4.00249,22.2194 4.5,18.5C 4.5,18.1667 4.5,17.8333 4.5,17.5C 5.83333,17.5 6.5,16.8333 6.5,15.5 Z"/></g>
<g><path style="opacity:0.961" fill="#060606" d="M 6.5,15.5 C 6.5,16.8333 5.83333,17.5 4.5,17.5C 4.83333,16.5 5.5,15.8333 6.5,15.5 Z"/></g>
<g><path style="opacity:1" fill="#535355" d="M 19.5,16.5 C 22.0961,17.2653 24.7628,17.5987 27.5,17.5C 27.0679,18.7095 26.4013,19.7095 25.5,20.5C 24.0028,19.6942 22.3361,19.0276 20.5,18.5C 19.7025,18.0431 19.3691,17.3764 19.5,16.5 Z"/></g>
<g><path style="opacity:1" fill="#e7e7e7" d="M 14.5,23.5 C 14.736,25.8704 15.736,27.8704 17.5,29.5C 14.3884,30.9829 11.5551,30.6496 9,28.5C 8.04416,24.0748 9.87749,22.4082 14.5,23.5 Z"/></g>
<g><path style="opacity:1" fill="#b9bbbf" d="M 1.5,26.5 C 3.59007,26.4501 4.9234,27.4501 5.5,29.5C 2.58121,30.9318 1.24788,29.9318 1.5,26.5 Z"/></g>
</svg>
