<svg xmlns="http://www.w3.org/2000/svg" width="20" height="20" viewBox="0 0 20 20"><title>memos-list</title><g fill="#888" fill-rule="nonzero"><path d="M12.79 0C17.828 0 20 2.173 20 7.21v5.58c0 5.037-2.173 7.21-7.21 7.21H7.21C2.172 20 0 17.827 0 12.79V7.21C0 2.172 2.173 0 7.21 0h5.58Zm0 1.395H7.21c-4.267 0-5.815 1.548-5.815 5.814v5.582c0 4.266 1.548 5.814 5.814 5.814h5.582c4.266 0 5.814-1.548 5.814-5.814V7.209c0-4.266-1.548-5.814-5.814-5.814Z"/><path d="M14.115 5.832a.698.698 0 1 1 1.072.894l-6.205 7.442a.698.698 0 0 1-1.072 0l-3.097-3.722a.698.698 0 1 1 1.072-.892l2.56 3.077 5.67-6.799Z"/></g></svg>