<svg xmlns="http://www.w3.org/2000/svg" width="20" height="20" viewBox="0 0 20 20"><title>memos_random_n</title><g fill="#888" fill-rule="nonzero"><path d="M12.79 0C17.828 0 20 2.173 20 7.21v5.58c0 5.037-2.173 7.21-7.21 7.21H7.21C2.172 20 0 17.827 0 12.79V7.21C0 2.172 2.173 0 7.21 0h5.58Zm0 1.395H7.21c-4.267 0-5.815 1.548-5.815 5.814v5.582c0 4.266 1.548 5.814 5.814 5.814h5.582c4.266 0 5.814-1.548 5.814-5.814V7.209c0-4.266-1.548-5.814-5.814-5.814Z"/><path d="M7.014 6.667c1.558 0 2.898 1.322 3.26 3.215.124.65.408 1.229.801 1.63.366.374.794.571 1.239.571h1.567l-.596-.6a.628.628 0 0 1 0-.883.618.618 0 0 1 .878 0l1.655 1.666a.627.627 0 0 1 0 .884l-1.655 1.667a.618.618 0 0 1-.878 0 .628.628 0 0 1 0-.884l.596-.6h-1.567c-1.558 0-2.898-1.322-3.26-3.215-.124-.65-.408-1.229-.801-1.63-.365-.374-.794-.571-1.239-.571H4.621A.623.623 0 0 1 4 7.292c0-.346.278-.625.62-.625h2.394Zm1.766 4.07c.14.477.352.93.628 1.344-.613.782-1.465 1.252-2.394 1.252H4.621A.623.623 0 0 1 4 12.708c0-.345.278-.625.62-.625h2.394c.445 0 .874-.197 1.24-.57a2.82 2.82 0 0 0 .526-.777Zm5.383-5.554 1.655 1.667a.627.627 0 0 1 0 .884L14.163 9.4a.618.618 0 0 1-.878 0 .628.628 0 0 1 0-.884l.596-.6h-1.567c-.445 0-.873.198-1.239.572a2.82 2.82 0 0 0-.527.776 4.927 4.927 0 0 0-.628-1.345c.613-.782 1.465-1.252 2.394-1.252h1.567l-.596-.6a.628.628 0 0 1 0-.884.618.618 0 0 1 .878 0Z"/></g></svg>