<svg height="20" viewBox="0 0 20 20" width="20" xmlns="http://www.w3.org/2000/svg"><g fill="#888"><path d="m8 4.25a2.75 2.75 0 1 1 0 5.5 2.75 2.75 0 0 1 0-5.5zm0 1.5a1.25 1.25 0 1 0 0 2.5 1.25 1.25 0 0 0 0-2.5zm6.603 4.11c.965-.813 2.482-.813 3.447 0l1.433 1.208a.75.75 0 1 1 -.966 1.147l-1.434-1.208c-.407-.343-1.107-.343-1.514 0l-3.658 3.081c-.965.814-2.481.814-3.453-.005l-.284-.245c-.369-.311-1.006-.344-1.426-.068l-4.335 2.856a.75.75 0 1 1 -.826-1.252l4.336-2.857c.97-.639 2.338-.568 3.224.18l.284.244c.407.343 1.107.343 1.514 0l3.658-3.08z"/><path d="m10.93 0a.698.698 0 1 1 0 1.395h-3.72c-4.267 0-5.815 1.548-5.815 5.814v5.582c0 4.266 1.548 5.814 5.814 5.814h5.582c4.266 0 5.814-1.548 5.814-5.814v-4.651a.698.698 0 0 1 1.395 0v4.65c0 5.037-2.173 7.21-7.21 7.21h-5.58c-5.038 0-7.21-2.173-7.21-7.21v-5.58c0-5.038 2.173-7.21 7.21-7.21z"/><path d="m15.406.987c0-.623.734-.935 1.164-.495l1.818 1.867a.713.713 0 0 1 0 .99.67.67 0 0 1 -.964 0l-.655-.673v3.91a.694.694 0 0 1 -.589.694l-.093.006a.691.691 0 0 1 -.681-.7z"/><path d="m15.605.492a.67.67 0 0 1 .965 0 .713.713 0 0 1 0 .99l-1.82 1.868a.67.67 0 0 1 -.964 0 .713.713 0 0 1 0-.99z"/></g></svg>