<?xml version="1.0" standalone="no"?>
<!DOCTYPE svg PUBLIC "-//W3C//DTD SVG 20010904//EN"
 "http://www.w3.org/TR/2001/REC-SVG-20010904/DTD/svg10.dtd">
<svg version="1.0" xmlns="http://www.w3.org/2000/svg"
 width="300.000000pt" height="300.000000pt" viewBox="0 0 300.000000 300.000000"
 preserveAspectRatio="xMidYMid meet">
<metadata>
Created by potrace 1.14, written by Peter Selinger 2001-2017
</metadata>
<g transform="translate(0.000000,300.000000) scale(0.100000,-0.100000)"
fill="#000000" stroke="none">
<path d="M1150 2124 c-74 -14 -129 -33 -188 -63 -44 -22 -54 -40 -24 -42 9 0
62 -2 117 -4 266 -10 317 -22 470 -113 183 -108 397 -334 513 -542 52 -93 112
-243 102 -254 -18 -18 -439 -5 -607 18 -24 3 -62 9 -85 12 -228 30 -451 119
-555 220 -108 106 -143 261 -74 330 23 24 31 26 86 21 80 -6 185 -41 401 -133
254 -107 274 -115 274 -106 0 10 -92 98 -150 144 -102 80 -242 159 -405 228
-27 12 -119 45 -125 45 -3 1 -32 11 -64 23 l-60 23 -63 -68 c-93 -99 -108
-136 -107 -258 1 -149 47 -255 158 -369 116 -120 262 -195 481 -250 100 -25
242 -39 515 -51 273 -12 348 -16 385 -20 22 -2 63 -7 90 -10 28 -3 74 -12 102
-19 29 -8 55 -10 58 -6 10 15 -119 338 -223 560 -117 249 -357 499 -589 614
-146 72 -299 97 -433 70z"/>
</g>
</svg>
