<svg xmlns="http://www.w3.org/2000/svg" width="13.379" height="12.802" viewBox="0 0 13.379 12.802"><title>star</title><path fill="#FFAC2E" fill-rule="evenodd" d="M6.317 11.188 3.422 12.71a.8.8 0 0 1-1.161-.843l.553-3.224a.8.8 0 0 0-.23-.708L.242 5.652a.8.8 0 0 1 .443-1.365l3.237-.47a.8.8 0 0 0 .602-.438L5.972.446a.8.8 0 0 1 1.435 0L8.854 3.38a.8.8 0 0 0 .603.438l3.237.47a.8.8 0 0 1 .443 1.365l-2.342 2.283a.8.8 0 0 0-.23.708l.553 3.224a.8.8 0 0 1-1.161.843l-2.895-1.522a.8.8 0 0 0-.745 0Z"/></svg>